<?xml version="1.0" encoding="UTF-8"?>
<svg id="Layer_2" data-name="Layer 2" xmlns="http://www.w3.org/2000/svg" viewBox="0 0 1322.59 329.2">
  <defs>
    <style>
      .cls-1 {
        fill: #00a99d;
      }

      .cls-2 {
        fill: #fff;
      }
    </style>
  </defs>
  <g id="Layer_1-2" data-name="Layer 1">
    <g>
      <path class="cls-2" d="M497.97,178.68c1.42,43.89-34.28,80.65-79.75,82.13-18.5.6-35.78-4.74-49.84-14.24-4.79,1.92-9.66,3.47-14.65,4.25-9.96,1.54-20.63-.26-28.98-7.62,11.63-2.58,17.59-8.25,23.18-16.43-8.76-12.16-14.09-26.83-14.61-42.75-1.42-43.88,34.28-80.65,79.75-82.13,45.47-1.47,83.47,32.91,84.9,76.79Z"/>
      <g>
        <path class="cls-2" d="M19.05,260.62c3.3-15.49,4.95-34.42,4.95-56.77V54.1c0-18.29-8-27.43-24-27.43v-14.48L66.68,0v121.16c11.9-15.75,27.85-23.62,47.85-23.62,8.61,0,17.03,1.65,25.25,4.95,8.23,3.3,15.5,8.19,21.83,14.67,6.33,6.48,11.45,14.67,15.38,24.58,3.92,9.91,5.89,21.34,5.89,34.29,0,15.24-2.03,28.52-6.08,39.82-4.05,11.31-9.56,20.77-16.53,28.39-6.97,7.62-15.26,13.28-24.88,16.96-9.63,3.68-20.01,5.52-31.15,5.52s-20.39-1.78-27.74-5.33c-7.35-3.55-14.31-8.63-20.89-15.24-1.27,3.05-3.43,5.97-6.48,8.76-3.05,2.8-6.73,5.96-11.05,9.53l-19.05-3.81ZM65.54,188.6c0,4.83.19,10.8.57,17.91.38,7.11,1.84,13.91,4.38,20.38,2.54,6.48,6.41,12.07,11.62,16.76,5.2,4.7,12.63,7.05,22.29,7.05,6.86,0,12.19-1.84,16-5.53,3.81-3.68,6.67-8.44,8.57-14.29,1.9-5.84,3.05-12.51,3.43-20,.38-7.49.57-14.92.57-22.29s-.26-15.05-.76-23.05c-.51-8-1.91-15.3-4.19-21.91-2.29-6.6-5.72-12.06-10.29-16.38-4.57-4.32-11.05-6.48-19.43-6.48s-14.35,1.9-18.67,5.72c-4.32,3.81-7.56,8.57-9.72,14.29-2.16,5.72-3.43,11.88-3.81,18.48-.38,6.61-.57,12.57-.57,17.91v11.43Z"/>
        <path class="cls-2" d="M204.6,259.85v-16c17.01,0,25.53-4.82,25.53-14.48V42.29c0-10.41-9.4-15.62-28.2-15.62v-14.48L280.04.38v230.52c0,8.64,9.39,12.96,28.2,12.96v16h-103.64Z"/>
        <path class="cls-2" d="M555.9,327.3c-13.97,0-24.96-3.37-32.96-10.1-8-6.73-12-14.29-12-22.67,0-6.1,2.29-12.13,6.86-18.1,4.57-5.97,12.19-10.86,22.86-14.67-8.13-2.55-14.04-6.5-17.72-11.86-3.68-5.36-5.52-10.97-5.52-16.84,0-7.14,2.6-13.9,7.81-20.28,5.2-6.38,12.63-10.46,22.29-12.25-4.57-2.02-8.76-4.24-12.57-6.65-3.81-2.41-7.05-5.38-9.72-8.93-2.67-3.55-4.7-7.79-6.1-12.73-1.4-4.94-2.1-10.83-2.1-17.68,0-18.75,6.67-32.93,20-42.57,13.34-9.63,30.92-14.44,52.77-14.44,8.89,0,17.65,1.14,26.29,3.43,8.63,2.29,16.38,5.97,23.24,11.05,9.14-10.67,19.68-16,31.62-16s17.53,5.21,17.53,15.62c0,11.18-4.77,16.76-14.29,16.76-5.16,0-9.53-1.9-13.13-5.72-1.53.51-3,1.14-4.39,1.91-1.4.76-2.61,1.4-3.62,1.91,2.29,4.07,4.13,8.38,5.53,12.95,1.39,4.57,2.09,9.66,2.09,15.24,0,21.09-6.92,36.14-20.76,45.15-13.85,9.02-33.6,13.53-59.25,13.53-2.8,0-5.59-.25-8.38-.76-2.8-.51-5.85-1.27-9.14-2.29-10.16,1.52-15.24,5.71-15.24,12.57,0,4.83,1.91,8.19,5.72,10.1,3.81,1.91,10.16,2.86,19.05,2.86h41.91c9.91,0,18.67,1.21,26.29,3.62,7.62,2.42,13.93,5.66,18.94,9.72,5.01,4.07,8.82,8.7,11.43,13.91,2.61,5.2,3.92,10.6,3.92,16.19s-1.46,11.62-4.38,17.34c-2.92,5.71-7.3,10.86-13.15,15.43-5.85,4.57-13.21,8.25-22.1,11.05-8.89,2.79-19.18,4.19-30.86,4.19h-48.77ZM597.05,311.29c14.22,0,23.81-2.24,28.77-6.72,4.95-4.49,7.43-11.22,7.43-20.18,0-5.64-2.29-10-6.86-13.06-4.57-3.08-13.59-4.61-27.05-4.61h-30.48c-5.59,2.05-9.78,4.61-12.57,7.69-2.8,3.07-4.19,7.43-4.19,13.07,0,7.43,2.79,13.26,8.38,17.48,5.58,4.23,14.22,6.34,25.91,6.34h10.67ZM586.76,194.32c10.41,0,17.01-2.71,19.81-8.15,2.79-5.44,4.19-13.59,4.19-24.46,0-15.93-1.33-27.93-4-36.02-2.67-8.09-8.83-12.14-18.48-12.14s-16.13,3.04-18.67,9.1c-2.54,6.07-3.81,15.3-3.81,27.68,0,7.33.19,13.72.57,19.15s1.27,9.98,2.67,13.65c1.39,3.67,3.49,6.45,6.29,8.35,2.79,1.89,6.6,2.84,11.43,2.84Z"/>
        <path class="cls-1" d="M812.04,147.84c-11.69-26.16-27.18-39.25-46.48-39.25-7.88,0-14.74,1.91-20.58,5.73-5.85,3.82-8.76,10.19-8.76,19.09,0,5.1,2.35,9.42,7.05,12.99,4.7,3.57,10.54,6.88,17.53,9.93,6.98,3.05,14.54,6.11,22.67,9.16,8.13,3.06,15.68,6.69,22.67,10.89,6.98,4.2,12.82,9.23,17.53,15.09,4.7,5.86,7.05,13.12,7.05,21.77,0,7.64-1.4,14.51-4.19,20.62-2.8,6.11-6.67,11.34-11.62,15.66s-10.67,7.83-17.15,10.5c-6.48,2.67-13.28,4.51-20.38,5.54-12.71,0-24-3.3-33.91-9.91-5.59,4.32-13.21,7.11-22.86,8.38-4.07-18.54-6.1-38.35-6.1-59.44h10.29c2.79,9.14,5.84,16.83,9.14,23.05,3.3,6.23,6.98,11.18,11.05,14.86,4.06,3.69,8.63,6.29,13.72,7.81,5.08,1.52,10.79,2.29,17.15,2.29,21.08,0,31.62-8.25,31.62-24.77,0-4.82-.83-8.95-2.48-12.38-1.66-3.43-4.19-6.35-7.62-8.76-3.43-2.41-7.69-4.7-12.76-6.86-5.08-2.16-11.05-4.38-17.91-6.67-5.33-1.77-11.05-4-17.15-6.67s-11.75-5.91-16.96-9.72c-5.21-3.81-9.53-8.32-12.96-13.53-3.43-5.2-5.14-11.24-5.14-18.1s1.01-13.21,3.05-19.05c2.03-5.84,5.14-10.92,9.33-15.24,4.19-4.32,9.58-7.68,16.19-10.1,6.6-2.41,14.48-3.62,23.62-3.62,10.92,0,21.59,3.05,32.01,9.14,4.06-3.3,9.01-5.84,14.86-7.62,4.57,17.28,6.86,33.66,6.86,49.15h-8.38Z"/>
        <path class="cls-1" d="M850.14,329.2v-9.91c13.72,0,20.58-3.81,20.58-11.43v-168.41c0-11.68-7.75-17.53-23.24-17.53v-7.24l53.72-17.53c1.01,2.8,1.52,6.73,1.52,11.81v18.67c4.82-10.67,11.81-18.41,20.96-23.24,9.14-4.82,18.54-7.24,28.2-7.24,12.44,0,23.11,2.86,32,8.57,8.89,5.72,16.13,12.64,21.72,20.77,5.58,8.13,9.65,16.83,12.19,26.1,2.54,9.28,3.81,17.47,3.81,24.58,0,10.92-1.65,21.4-4.95,31.43-3.3,10.04-7.94,19.05-13.91,27.05-5.97,8-13.28,14.54-21.91,19.62-8.64,5.08-18.29,8-28.96,8.76-12.45,0-22.29-1.4-29.53-4.19s-13.4-6.6-18.48-11.43l-1.14,1.52c.76,1.52,1.14,6.23,1.14,14.1v42.29c0,8.63,10.16,12.95,30.48,12.95v9.91h-84.21ZM902.72,194.7c.76,7.62,1.91,14.67,3.43,21.15s3.87,12.13,7.05,16.96c3.17,4.83,7.36,8.64,12.57,11.43,5.2,2.8,12,4.19,20.38,4.19,7.87,0,14.6-1.77,20.19-5.33,5.58-3.55,10.1-8.32,13.53-14.29,3.43-5.96,5.91-12.7,7.43-20.19,1.52-7.49,2.29-15.18,2.29-23.05s-1.02-15.49-3.05-23.62c-2.04-8.13-5.08-15.43-9.14-21.91-4.07-6.48-9.21-11.81-15.43-16-6.23-4.19-13.53-6.29-21.91-6.29-9.14,0-16.26,2.42-21.34,7.24-5.08,4.83-8.83,10.42-11.24,16.77-2.42,6.35-3.81,12.64-4.19,18.86-.38,6.23-.57,10.73-.57,13.53v20.58Z"/>
        <path class="cls-1" d="M1119.13,267.09c-11.94,0-22.86-2.23-32.77-6.67s-18.35-10.41-25.34-17.91c-6.99-7.49-12.38-16.25-16.19-26.29-3.81-10.03-5.71-20.63-5.71-31.81,0-13.2,2.16-25.21,6.48-36.01,4.32-10.79,10.16-20,17.53-27.62,7.36-7.62,16-13.46,25.91-17.53,9.91-4.06,20.44-6.1,31.62-6.1s21.97,2.23,31.62,6.67c9.65,4.45,17.97,10.42,24.96,17.91,6.98,7.5,12.38,16.26,16.19,26.29,3.81,10.04,5.71,20.64,5.71,31.81,0,13.47-2.16,25.59-6.48,36.39-4.32,10.8-10.16,19.94-17.53,27.43-7.37,7.5-15.88,13.28-25.53,17.34-9.66,4.06-19.81,6.1-30.48,6.1ZM1120.66,253.76c9.91,0,17.72-2.21,23.43-6.65,5.71-4.43,10.1-9.69,13.14-15.77,3.05-6.08,5.01-12.41,5.91-19,.89-6.58,1.33-12.03,1.33-16.34,0-8.36-.51-17.54-1.52-27.55-1.02-10-3.11-19.25-6.29-27.74-3.18-8.49-7.75-15.65-13.72-21.47-5.97-5.82-13.91-8.74-23.81-8.74s-18.16,2.22-24,6.65c-5.85,4.44-10.29,9.69-13.34,15.77-3.05,6.08-5.02,12.42-5.91,19-.89,6.58-1.33,12.03-1.33,16.34,0,8.36.51,17.55,1.52,27.55,1.01,10.01,3.11,19.25,6.29,27.74,3.17,8.49,7.81,15.65,13.91,21.47,6.1,5.83,14.22,8.74,24.39,8.74Z"/>
        <path class="cls-1" d="M1322.59,220.99c-1.52,6.61-3.43,12.64-5.71,18.1-2.29,5.46-5.33,10.16-9.14,14.1-3.81,3.94-8.57,6.98-14.29,9.14-5.72,2.16-12.51,3.24-20.38,3.24-12.45,0-22.29-2.99-29.53-8.95-7.24-5.97-10.86-15.56-10.86-28.77v-108.59h-24.77l1.52-11.43c11.68-2.29,21.08-8.95,28.2-20,7.11-11.05,12.19-23.81,15.24-38.29l11.81-1.52v56.39h30.1c3.55,0,6.79-.27,9.72-.83,2.92-.55,5.53-1.17,7.81-1.83v17.53h-47.63v100.21c0,3.05.12,6.04.38,8.95.25,2.92.95,5.66,2.1,8.19,1.14,2.54,2.98,4.57,5.53,6.1,2.54,1.52,6.1,2.29,10.67,2.29,7.36,0,13.97-2.54,19.81-7.62,5.84-5.08,9.39-11.56,10.67-19.43l8.76,3.05Z"/>
      </g>
    </g>
  </g>
</svg>